<svg id="Layer_1" data-name="Layer 1" xmlns="http://www.w3.org/2000/svg" viewBox="0 0 27.58 27.09"><defs><style>.cls-1{fill:#dc1f26;}.cls-2{fill:#fff;}.cls-3{fill:#797979;}</style></defs><title>alerts_out</title><path class="cls-1" d="M300.14,397l6.38-11.5L312.9,397Z" transform="translate(-292.73 -383)"/><path class="cls-2" d="M305.72,395.75a.84.84,0,0,1,.21-.61.81.81,0,0,1,.6-.21.73.73,0,0,1,.58.22.84.84,0,0,1,.21.6.85.85,0,0,1-.21.61.75.75,0,0,1-.58.23.78.78,0,0,1-.6-.22A.85.85,0,0,1,305.72,395.75ZM307,394h-.93l-.28-5.53h1.49Z" transform="translate(-292.73 -383)"/><path class="cls-3" d="M315.28,398.34H297.76L306.52,383ZM300.13,397h12.78l-6.39-11.19Z" transform="translate(-292.73 -383)"/><path class="cls-3" d="M297.87,410l-.7-2h-2.81l-.71,2h-.92l2.6-7.05h.87l2.6,7.05Zm-2.15-5.91-1.1,3.15h2.29l-1.11-3.15Zm4.37,5.91v-7.35h.84V410Zm4.69-4.61a1.36,1.36,0,0,0-1,.42,1.79,1.79,0,0,0-.46,1.12h2.9a1.64,1.64,0,0,0-.4-1.12A1.29,1.29,0,0,0,304.78,405.39Zm1.39,3.25H307a1.88,1.88,0,0,1-.78,1.07,2.57,2.57,0,0,1-1.44.38,2.17,2.17,0,0,1-1.73-.73,3.4,3.4,0,0,1,0-4,2.17,2.17,0,0,1,1.73-.75,2.12,2.12,0,0,1,1.68.71,2.91,2.91,0,0,1,.61,1.94v.32h-3.79v0a2,2,0,0,0,.44,1.24,1.39,1.39,0,0,0,1.08.46A1.36,1.36,0,0,0,306.17,408.64Zm2.35,1.36v-5.26h.8v.78h.08a1.06,1.06,0,0,1,.52-.63,1.76,1.76,0,0,1,.94-.25,2.77,2.77,0,0,1,.42,0v.84a2.34,2.34,0,0,0-.54-.05,1.4,1.4,0,0,0-1,.36,1.2,1.2,0,0,0-.39.92V410Zm4.57-6.63h.84v1.37h1.17v.7h-1.17v3a1,1,0,0,0,.18.67.78.78,0,0,0,.6.21,2.68,2.68,0,0,0,.39,0V410a3.13,3.13,0,0,1-.49.05,1.69,1.69,0,0,1-1.17-.33,1.44,1.44,0,0,1-.35-1.08v-3.19h-.85v-.7h.85Zm3.18,2.81a1.36,1.36,0,0,1,.56-1.1,2.23,2.23,0,0,1,1.4-.44,2.36,2.36,0,0,1,1.37.38,1.5,1.5,0,0,1,.62,1h-.83a.84.84,0,0,0-.39-.5,1.4,1.4,0,0,0-.77-.19,1.37,1.37,0,0,0-.8.22.64.64,0,0,0-.31.56.55.55,0,0,0,.22.45,1.72,1.72,0,0,0,.69.29l.81.2a2.39,2.39,0,0,1,1.11.52,1.19,1.19,0,0,1,.36.9,1.38,1.38,0,0,1-.6,1.15,2.5,2.5,0,0,1-1.51.44,2.45,2.45,0,0,1-1.44-.39,1.43,1.43,0,0,1-.63-1H317a1,1,0,0,0,.43.53,1.52,1.52,0,0,0,.81.19,1.54,1.54,0,0,0,.87-.22.69.69,0,0,0,.34-.6c0-.35-.27-.6-.83-.74l-.9-.22a2.3,2.3,0,0,1-1.1-.52A1.24,1.24,0,0,1,316.27,406.18Z" transform="translate(-292.73 -383)"/></svg>