<svg id="Layer_1" data-name="Layer 1" xmlns="http://www.w3.org/2000/svg" viewBox="0 0 27.58 27.09"><defs><style>.cls-1{fill:#cecfd2;}.cls-2{fill:#797979;}</style></defs><title>alerts</title><path class="cls-1" d="M300.46,397l6.37-11.5,6.38,11.5Z" transform="translate(-293.04 -383)"/><path class="cls-2" d="M306,395.75a.88.88,0,0,1,.2-.61.83.83,0,0,1,.6-.21.77.77,0,0,1,.59.22.89.89,0,0,1,.2.6.85.85,0,0,1-.21.61.75.75,0,0,1-.58.23.81.81,0,0,1-.6-.22A.89.89,0,0,1,306,395.75Zm1.27-1.72h-.93l-.28-5.53h1.49Z" transform="translate(-293.04 -383)"/><path class="cls-2" d="M315.59,398.34H298.07L306.83,383ZM300.45,397h12.78l-6.4-11.19Z" transform="translate(-293.04 -383)"/><path class="cls-2" d="M298.19,410l-.71-2h-2.8l-.71,2H293l2.6-7.05h.87l2.6,7.05ZM296,404.09l-1.11,3.15h2.29l-1.1-3.15Zm4.37,5.91v-7.35h.84V410Zm4.69-4.61a1.39,1.39,0,0,0-1,.42,1.73,1.73,0,0,0-.45,1.12h2.9a1.69,1.69,0,0,0-.4-1.12A1.32,1.32,0,0,0,305.1,405.39Zm1.38,3.25h.84a1.82,1.82,0,0,1-.77,1.07,2.62,2.62,0,0,1-1.44.38,2.19,2.19,0,0,1-1.74-.73,3,3,0,0,1-.64-2,2.9,2.9,0,0,1,.65-2,2.16,2.16,0,0,1,1.73-.75,2.1,2.1,0,0,1,1.67.71,2.86,2.86,0,0,1,.61,1.94v.32h-3.78v0a1.92,1.92,0,0,0,.44,1.24,1.36,1.36,0,0,0,1.08.46A1.34,1.34,0,0,0,306.48,408.64Zm2.35,1.36v-5.26h.8v.78h.08a1.08,1.08,0,0,1,.53-.63,1.71,1.71,0,0,1,.93-.25,2.58,2.58,0,0,1,.42,0v.84a2.34,2.34,0,0,0-.54-.05,1.4,1.4,0,0,0-1,.36,1.2,1.2,0,0,0-.39.92V410Zm4.57-6.63h.84v1.37h1.17v.7h-1.17v3a1,1,0,0,0,.19.67.74.74,0,0,0,.59.21,2.68,2.68,0,0,0,.39,0V410a3.13,3.13,0,0,1-.49.05,1.7,1.7,0,0,1-1.17-.33,1.44,1.44,0,0,1-.35-1.08v-3.19h-.85v-.7h.85Zm3.18,2.81a1.35,1.35,0,0,1,.57-1.1,2.21,2.21,0,0,1,1.4-.44,2.32,2.32,0,0,1,1.36.38,1.46,1.46,0,0,1,.62,1h-.83a.84.84,0,0,0-.39-.5,1.4,1.4,0,0,0-.77-.19,1.34,1.34,0,0,0-.79.22.63.63,0,0,0-.32.56.55.55,0,0,0,.22.45,1.72,1.72,0,0,0,.69.29l.81.2a2.39,2.39,0,0,1,1.11.52,1.19,1.19,0,0,1,.36.9,1.38,1.38,0,0,1-.6,1.15,2.83,2.83,0,0,1-2.95.05,1.43,1.43,0,0,1-.63-1h.87a.92.92,0,0,0,.42.53,1.52,1.52,0,0,0,.81.19,1.57,1.57,0,0,0,.88-.22.72.72,0,0,0,.34-.6c0-.35-.28-.6-.84-.74l-.9-.22a2.26,2.26,0,0,1-1.09-.52A1.21,1.21,0,0,1,316.58,406.18Z" transform="translate(-293.04 -383)"/></svg>