<?xml version="1.0" encoding="utf-8"?>
<!-- Generator: Adobe Illustrator 23.0.3, SVG Export Plug-In . SVG Version: 6.00 Build 0)  -->
<svg version="1.1" xmlns="http://www.w3.org/2000/svg" xmlns:xlink="http://www.w3.org/1999/xlink" x="0px" y="0px"
	 viewBox="0 0 13 21" style="enable-background:new 0 0 13 21;" xml:space="preserve">
<style type="text/css">
	.st0{fill-rule:evenodd;clip-rule:evenodd;fill:#FFFFFF;filter:url(#Adobe_OpacityMaskFilter);}
	.st1{mask:url(#mask0_1_);}
	.st2{fill-rule:evenodd;clip-rule:evenodd;fill:#FFFFFF;}
</style>
<g id="Layer_1">
	<defs>
		<filter id="Adobe_OpacityMaskFilter" filterUnits="userSpaceOnUse" x="0.7" y="0" width="12.3" height="20.7">
			<feColorMatrix  type="matrix" values="1 0 0 0 0  0 1 0 0 0  0 0 1 0 0  0 0 0 1 0"/>
		</filter>
	</defs>
	<mask maskUnits="userSpaceOnUse" x="0.7" y="0" width="12.3" height="20.7" id="mask0_1_">
		<path class="st0" d="M10.5,0.4l-9.4,9c-0.5,0.5-0.5,1.3,0,1.9l9.4,9c0.6,0.6,1.5,0.6,2.1,0c0.6-0.6,0.6-1.6,0-2.1l-7.8-7.5
			c-0.1-0.1-0.1-0.4,0-0.5l7.8-7.5c0.6-0.6,0.6-1.6,0-2.1c-0.3-0.3-0.7-0.4-1-0.4C11.1,0,10.8,0.1,10.5,0.4z"/>
	</mask>
	<g class="st1">
		<path class="st2" d="M10.5,0.4l-9.4,9c-0.5,0.5-0.5,1.3,0,1.9l9.4,9c0.6,0.6,1.5,0.6,2.1,0c0.6-0.6,0.6-1.6,0-2.1l-7.8-7.5
			c-0.1-0.1-0.1-0.4,0-0.5l7.8-7.5c0.6-0.6,0.6-1.6,0-2.1c-0.3-0.3-0.7-0.4-1-0.4C11.1,0,10.8,0.1,10.5,0.4z"/>
	</g>
</g>
<g id="Layer_2">
</g>
</svg>
