<svg id="Layer_1" data-name="Layer 1" xmlns="http://www.w3.org/2000/svg" viewBox="0 0 27.85 28.9"><defs><style>.cls-1{fill:#c4c4c4;fill-rule:evenodd;}.cls-2{fill:#797979;}</style></defs><title>notify</title><path class="cls-1" d="M298.4,382.19a2,2,0,0,0-2,2v7.54a2,2,0,0,0,2,2h9l-1.15,3.46,5.19-3.46H314a2,2,0,0,0,2-2v-7.54a2,2,0,0,0-2-2Z" transform="translate(-292.28 -382.19)"/><path class="cls-2" d="M293.15,409.19h-.87v-7.05h.86l3.82,5.49H297v-5.49h.87v7.05h-.85l-3.83-5.47h-.08Zm10.5-.64a2.23,2.23,0,0,1-1.77.73,2.26,2.26,0,0,1-1.78-.73,3.43,3.43,0,0,1,0-4,2.54,2.54,0,0,1,3.56,0,2.9,2.9,0,0,1,.65,2A2.85,2.85,0,0,1,303.65,408.55Zm-2.92-.54a1.55,1.55,0,0,0,2.3,0,2.77,2.77,0,0,0,0-2.9,1.53,1.53,0,0,0-2.3,0,2.77,2.77,0,0,0,0,2.9Zm5.37-5.45h.84v1.36h1.17v.71h-1.17v3a1,1,0,0,0,.18.67.78.78,0,0,0,.6.21l.39,0v.71a3.13,3.13,0,0,1-.49.05,1.67,1.67,0,0,1-1.17-.33,1.44,1.44,0,0,1-.35-1.08v-3.19h-.85v-.71h.85Zm3.42,6.63v-5.27h.84v5.27Zm.83-6.51a.54.54,0,0,1-.41.18.58.58,0,0,1-.42-.18.58.58,0,0,1,0-.82.58.58,0,0,1,.42-.18.58.58,0,0,1,.41,1Zm2.08,6.51v-4.56h-.87v-.71h.87v-.58a1.36,1.36,0,0,1,1.53-1.55,3.32,3.32,0,0,1,.57,0v.69a2,2,0,0,0-.4,0,.86.86,0,0,0-.65.22.89.89,0,0,0-.21.65v.56h1.21v.71h-1.21v4.56Zm3.84,1.9a2.13,2.13,0,0,1-.37,0v-.71l.35,0a.79.79,0,0,0,.58-.2,1.55,1.55,0,0,0,.39-.66l.09-.32-1.94-5.27h.9l1.45,4.34h.08l1.44-4.34h.89l-2.05,5.59a3.3,3.3,0,0,1-.72,1.25A1.63,1.63,0,0,1,316.27,411.09Z" transform="translate(-292.28 -382.19)"/></svg>